<svg width="412" height="917" viewBox="0 0 412 917" fill="none" xmlns="http://www.w3.org/2000/svg">
<rect width="412" height="917" fill="white"/>
<path fill-rule="evenodd" clip-rule="evenodd" d="M177.534 415.742V407.916C177.534 400.247 180.585 392.892 186.018 387.469C191.45 382.046 198.818 379 206.5 379C214.183 379 221.551 382.046 226.983 387.469C232.415 392.892 235.467 400.247 235.467 407.916V415.742C245.408 416.043 251.495 417.107 256.138 420.955C262.572 426.291 264.272 435.312 267.663 453.363L273.456 484.207C278.222 509.591 280.601 522.283 273.657 530.641C266.705 539 253.766 539 227.897 539H185.104C159.227 539 146.296 539 139.344 530.641C132.392 522.283 134.786 509.591 139.545 484.207L145.338 453.363C148.737 435.32 150.428 426.291 156.863 420.955C161.505 417.107 167.592 416.043 177.534 415.742ZM189.12 407.916C189.12 403.314 190.951 398.901 194.211 395.648C197.47 392.394 201.891 390.566 206.5 390.566C211.11 390.566 215.53 392.394 218.79 395.648C222.049 398.901 223.88 403.314 223.88 407.916V415.627H189.12V407.916Z" fill="url(#paint0_radial_5_28)"/>
<path d="M202.086 464.15L214.96 442.119C220.539 443.587 225.49 446.28 229.814 450.197C234.137 454.113 237.278 458.764 239.237 464.15H202.086ZM191.879 473.329L179.281 451.298C182.591 448.055 186.439 445.485 190.823 443.587C195.208 441.69 199.943 440.742 205.029 440.742C205.826 440.742 206.746 440.788 207.788 440.881C208.83 440.974 209.78 441.081 210.638 441.201L191.879 473.329ZM169.441 486.64C169.073 485.171 168.782 483.672 168.566 482.142C168.35 480.612 168.243 479.051 168.246 477.46C168.246 473.115 168.951 469.015 170.361 465.159C171.771 461.304 173.763 457.785 176.338 454.603L194.914 486.64H169.441ZM195.189 512.801C189.611 511.333 184.645 508.64 180.292 504.723C175.94 500.807 172.782 496.156 170.821 490.771H207.88L195.189 512.801ZM205.029 514.178C204.109 514.178 203.174 514.117 202.222 513.995C201.271 513.872 200.367 513.75 199.512 513.628L218.179 481.591L230.777 503.622C227.467 506.865 223.62 509.436 219.238 511.333C214.856 513.23 210.12 514.178 205.029 514.178ZM233.72 500.317L215.144 468.281H240.617C240.985 469.749 241.276 471.249 241.492 472.779C241.708 474.308 241.815 475.869 241.812 477.46C241.812 481.744 241.062 485.844 239.561 489.761C238.06 493.677 236.113 497.196 233.72 500.317Z" fill="white"/>
<defs>
<radialGradient id="paint0_radial_5_28" cx="0" cy="0" r="1" gradientTransform="matrix(168.026 202.538 -1164.01 962.26 206.5 477.46)" gradientUnits="userSpaceOnUse">
<stop stop-color="#1B4ABB"/>
<stop offset="1" stop-color="#1291F6"/>
</radialGradient>
</defs>
</svg>
