<svg width="630" height="630" viewBox="0 0 630 630" fill="none" xmlns="http://www.w3.org/2000/svg">
<path fill-rule="evenodd" clip-rule="evenodd" d="M216.562 157.894V131.25C216.562 105.143 226.934 80.1048 245.394 61.6442C263.855 43.1836 288.893 32.8125 315 32.8125C341.107 32.8125 366.145 43.1836 384.606 61.6442C403.066 80.1048 413.438 105.143 413.438 131.25V157.894C447.221 158.917 467.906 162.54 483.683 175.639C505.549 193.804 511.324 224.516 522.847 285.968L542.535 390.968C558.731 477.383 566.816 520.59 543.217 549.045C519.592 577.5 475.624 577.5 387.713 577.5H242.287C154.35 577.5 110.408 577.5 86.7825 549.045C63.1575 520.59 71.295 477.383 87.465 390.968L107.152 285.968C118.702 224.543 124.451 193.804 146.317 175.639C162.094 162.54 182.779 158.917 216.562 157.894ZM255.937 131.25C255.937 115.586 262.16 100.563 273.237 89.4865C284.313 78.4101 299.336 72.1875 315 72.1875C330.664 72.1875 345.687 78.4101 356.763 89.4865C367.84 100.563 374.063 115.586 374.063 131.25V157.5H255.937V131.25Z" fill="url(#paint0_radial_2_22)"/>
<path d="M300 322.687L343.75 247.687C362.708 252.687 379.533 261.854 394.225 275.187C408.917 288.521 419.592 304.354 426.25 322.687H300ZM265.312 353.937L222.5 278.937C233.75 267.896 246.825 259.146 261.725 252.688C276.625 246.229 292.717 243 310 243C312.708 243 315.833 243.158 319.375 243.475C322.917 243.792 326.146 244.154 329.062 244.562L265.312 353.937ZM189.062 399.25C187.812 394.25 186.821 389.146 186.087 383.937C185.354 378.729 184.992 373.417 185 368C185 353.208 187.396 339.25 192.187 326.125C196.979 313 203.75 301.021 212.5 290.187L275.625 399.25H189.062ZM276.562 488.312C257.604 483.312 240.729 474.146 225.937 460.812C211.146 447.479 200.417 431.646 193.75 413.312H319.687L276.562 488.312ZM310 493C306.875 493 303.696 492.792 300.463 492.375C297.229 491.958 294.158 491.542 291.25 491.125L354.688 382.062L397.5 457.062C386.25 468.104 373.179 476.854 358.288 483.312C343.396 489.771 327.3 493 310 493ZM407.5 445.812L344.375 336.75H430.937C432.187 341.75 433.179 346.854 433.913 352.062C434.646 357.271 435.008 362.583 435 368C435 382.583 432.45 396.542 427.35 409.875C422.25 423.208 415.633 435.187 407.5 445.812Z" fill="white"/>
<defs>
<radialGradient id="paint0_radial_2_22" cx="0" cy="0" r="1" gradientUnits="userSpaceOnUse" gradientTransform="translate(315 368) rotate(50.3706) scale(895.238 5135.97)">
<stop stop-color="#1B4ABB"/>
<stop offset="1" stop-color="#1291F6"/>
</radialGradient>
</defs>
</svg>
